<svg xmlns="http://www.w3.org/2000/svg" viewBox="0 0 64 64">
  <!-- 鉢 -->
  <rect x="22" y="52" width="20" height="8" rx="2" fill="#8B5E3C"/>
  <rect x="19" y="50" width="26" height="4" rx="1.5" fill="#A0724A"/>
  <!-- 幹 -->
  <path d="M32 50 Q30 42 28 35 Q26 28 30 22" stroke="#6B4423" stroke-width="3.5" fill="none" stroke-linecap="round"/>
  <!-- 枝（左） -->
  <path d="M29 38 Q24 34 20 32" stroke="#6B4423" stroke-width="2.5" fill="none" stroke-linecap="round"/>
  <!-- 枝（右） -->
  <path d="M30 30 Q35 26 39 24" stroke="#6B4423" stroke-width="2" fill="none" stroke-linecap="round"/>
  <!-- 葉群（左下） -->
  <ellipse cx="18" cy="30" rx="8" ry="6" fill="#4A7C59"/>
  <ellipse cx="14" cy="33" rx="6" ry="5" fill="#5A9268"/>
  <!-- 葉群（右上） -->
  <ellipse cx="40" cy="22" rx="8" ry="6" fill="#4A7C59"/>
  <ellipse cx="44" cy="19" rx="6" ry="5" fill="#5A9268"/>
  <!-- 葉群（中央上） -->
  <ellipse cx="30" cy="18" rx="9" ry="7" fill="#3D6B4A"/>
  <ellipse cx="30" cy="14" rx="7" ry="5" fill="#5A9268"/>
  <ellipse cx="26" cy="17" rx="5" ry="4" fill="#4A7C59"/>
  <ellipse cx="34" cy="16" rx="5" ry="4" fill="#4A7C59"/>
</svg>